<svg width="124" height="124" fill="none" xmlns="http://www.w3.org/2000/svg"><path d="M39.82 60V46.8l.86.94h-4.02V46h5.14v14h-1.98zm10.762.16c-1.093 0-2.073-.28-2.94-.84-.853-.56-1.533-1.373-2.04-2.44-.493-1.067-.74-2.36-.74-3.88s.247-2.813.74-3.88c.507-1.067 1.187-1.88 2.04-2.44.867-.56 1.847-.84 2.94-.84 1.08 0 2.054.28 2.92.84.867.56 1.547 1.373 2.04 2.44.494 1.067.74 2.36.74 3.88s-.246 2.813-.74 3.88c-.493 1.067-1.173 1.88-2.04 2.44-.866.56-1.84.84-2.92.84zm0-1.78c.734 0 1.374-.2 1.92-.6.56-.4.994-1 1.3-1.8.32-.8.48-1.793.48-2.98s-.16-2.18-.48-2.98c-.306-.8-.74-1.4-1.3-1.8-.546-.4-1.186-.6-1.92-.6-.733 0-1.38.2-1.94.6-.56.4-1 1-1.32 1.8-.306.8-.46 1.793-.46 2.98s.154 2.18.46 2.98c.32.8.76 1.4 1.32 1.8.56.4 1.207.6 1.94.6zm13.34 1.78c-1.093 0-2.073-.28-2.94-.84-.853-.56-1.533-1.373-2.04-2.44-.493-1.067-.74-2.36-.74-3.88s.247-2.813.74-3.88c.507-1.067 1.187-1.88 2.04-2.44.867-.56 1.847-.84 2.94-.84 1.08 0 2.053.28 2.92.84.867.56 1.547 1.373 2.04 2.44.493 1.067.74 2.36.74 3.88s-.246 2.813-.74 3.88c-.493 1.067-1.173 1.88-2.04 2.44s-1.84.84-2.92.84zm0-1.78c.734 0 1.374-.2 1.92-.6.56-.4.993-1 1.3-1.8.32-.8.48-1.793.48-2.98s-.16-2.18-.48-2.98c-.306-.8-.74-1.4-1.3-1.8-.546-.4-1.186-.6-1.92-.6-.733 0-1.38.2-1.94.6-.56.4-1 1-1.32 1.8-.306.8-.46 1.793-.46 2.98s.154 2.18.46 2.98c.32.8.76 1.4 1.32 1.8.56.4 1.207.6 1.94.6zm9.54 1.62l9.56-14h1.54l-9.56 14h-1.54zm1.12-6.48c-.64 0-1.207-.16-1.7-.48a3.261 3.261 0 01-1.16-1.34c-.267-.573-.4-1.24-.4-2s.133-1.427.4-2c.28-.573.667-1.02 1.16-1.34.493-.32 1.06-.48 1.7-.48.653 0 1.22.16 1.7.48.493.32.873.767 1.14 1.34.267.573.4 1.24.4 2s-.133 1.427-.4 2a3.125 3.125 0 01-1.14 1.34c-.48.32-1.047.48-1.7.48zm0-1.14c.613 0 1.093-.233 1.44-.7.347-.48.52-1.14.52-1.98 0-.84-.173-1.493-.52-1.96-.347-.48-.827-.72-1.44-.72-.6 0-1.08.24-1.44.72-.347.467-.52 1.12-.52 1.96 0 .827.173 1.48.52 1.96.36.48.84.72 1.44.72zm8.86 7.74c-.64 0-1.207-.16-1.7-.48a3.126 3.126 0 01-1.14-1.34c-.267-.573-.4-1.24-.4-2s.133-1.427.4-2a3.126 3.126 0 011.14-1.34c.493-.32 1.06-.48 1.7-.48.653 0 1.22.16 1.7.48.493.32.873.767 1.14 1.34.28.573.42 1.24.42 2s-.14 1.427-.42 2a3.125 3.125 0 01-1.14 1.34c-.48.32-1.047.48-1.7.48zm0-1.14c.6 0 1.073-.233 1.42-.7.36-.48.54-1.14.54-1.98 0-.827-.18-1.48-.54-1.96-.347-.48-.82-.72-1.42-.72s-1.08.24-1.44.72c-.347.467-.52 1.12-.52 1.96 0 .84.173 1.5.52 1.98.36.467.84.7 1.44.7zM20.47 79v-9.8h3.822c.859 0 1.591.135 2.198.406.607.27 1.073.663 1.4 1.176.327.513.49 1.125.49 1.834 0 .71-.163 1.32-.49 1.834-.327.504-.793.896-1.4 1.176-.607.27-1.34.406-2.198.406H21.24l.63-.658V79h-1.4zm1.4-3.486l-.63-.7h3.01c.896 0 1.573-.191 2.03-.574.467-.383.7-.924.7-1.624 0-.7-.233-1.241-.7-1.624-.457-.383-1.134-.574-2.03-.574h-3.01l.63-.7v5.796zM34.778 79v-1.568l-.07-.294v-2.674c0-.57-.168-1.008-.504-1.316-.326-.317-.82-.476-1.484-.476a3.82 3.82 0 00-1.288.224 3.22 3.22 0 00-1.064.574l-.56-1.008c.383-.308.84-.541 1.372-.7a5.683 5.683 0 011.694-.252c1.018 0 1.802.247 2.352.742.551.495.826 1.25.826 2.268V79h-1.274zm-2.436.084c-.55 0-1.036-.093-1.456-.28-.41-.187-.728-.443-.952-.77a1.998 1.998 0 01-.336-1.134c0-.401.094-.765.28-1.092.196-.327.51-.588.938-.784.44-.196 1.027-.294 1.764-.294h2.352v.966h-2.296c-.672 0-1.124.112-1.358.336-.233.224-.35.495-.35.812 0 .364.145.658.434.882.29.215.691.322 1.204.322.504 0 .943-.112 1.316-.336.383-.224.658-.55.826-.98l.266.924c-.177.439-.49.789-.938 1.05-.448.252-1.012.378-1.694.378zm9.446 2.716a6.79 6.79 0 01-1.988-.294c-.635-.187-1.153-.457-1.554-.812l.644-1.036c.345.299.77.532 1.274.7a4.733 4.733 0 001.582.266c.877 0 1.521-.205 1.932-.616.41-.41.616-1.036.616-1.876v-1.568l.14-1.47-.07-1.484v-2.03h1.274v6.412c0 1.307-.327 2.268-.98 2.884-.654.616-1.61.924-2.87.924zm-.168-3.108c-.719 0-1.363-.15-1.932-.448a3.595 3.595 0 01-1.344-1.274c-.327-.541-.49-1.167-.49-1.876 0-.719.163-1.344.49-1.876a3.488 3.488 0 011.344-1.26c.569-.299 1.213-.448 1.932-.448.634 0 1.213.13 1.736.392.522.252.938.644 1.246 1.176.317.532.476 1.204.476 2.016 0 .803-.159 1.47-.476 2.002a3.031 3.031 0 01-1.246 1.204 3.827 3.827 0 01-1.736.392zm.154-1.176a2.74 2.74 0 001.316-.308 2.26 2.26 0 00.896-.854c.224-.364.336-.784.336-1.26s-.112-.896-.336-1.26a2.161 2.161 0 00-.896-.84 2.74 2.74 0 00-1.316-.308c-.495 0-.938.103-1.33.308a2.256 2.256 0 00-.91.84 2.434 2.434 0 00-.322 1.26c0 .476.107.896.322 1.26.224.364.527.649.91.854.392.205.835.308 1.33.308zm9.736 1.568c-.794 0-1.494-.163-2.1-.49a3.593 3.593 0 01-1.4-1.344c-.327-.57-.49-1.223-.49-1.96 0-.737.158-1.39.476-1.96a3.5 3.5 0 011.33-1.33 3.784 3.784 0 011.918-.49c.718 0 1.353.159 1.904.476.55.317.98.765 1.288 1.344.317.57.476 1.237.476 2.002 0 .056-.005.121-.014.196 0 .075-.005.145-.014.21H48.57v-.966h5.614l-.546.336c.009-.476-.089-.9-.294-1.274a2.183 2.183 0 00-.854-.868c-.355-.215-.77-.322-1.246-.322-.467 0-.882.107-1.246.322-.364.205-.649.5-.854.882a2.63 2.63 0 00-.308 1.288v.224c0 .495.112.938.336 1.33.233.383.555.681.966.896.41.215.882.322 1.414.322.438 0 .835-.075 1.19-.224.364-.15.681-.373.952-.672l.742.868a3.24 3.24 0 01-1.26.896 4.309 4.309 0 01-1.666.308zm12.08.028a6.811 6.811 0 01-2.142-.336c-.682-.233-1.218-.532-1.61-.896l.518-1.092c.373.327.849.597 1.428.812a5.15 5.15 0 001.806.322c.569 0 1.031-.065 1.386-.196.354-.13.616-.308.784-.532a1.31 1.31 0 00.252-.784c0-.336-.112-.607-.336-.812a2.294 2.294 0 00-.854-.49 8.388 8.388 0 00-1.148-.336c-.42-.093-.845-.2-1.274-.322a6.208 6.208 0 01-1.162-.49 2.416 2.416 0 01-.84-.784c-.215-.336-.322-.765-.322-1.288 0-.504.13-.966.392-1.386.27-.43.681-.77 1.232-1.022.56-.261 1.269-.392 2.128-.392.569 0 1.134.075 1.694.224.56.15 1.045.364 1.456.644l-.462 1.12a4.39 4.39 0 00-1.33-.602 5.027 5.027 0 00-1.358-.196c-.551 0-1.004.07-1.358.21-.355.14-.616.327-.784.56a1.362 1.362 0 00-.238.784c0 .345.107.62.322.826.224.205.508.369.854.49.354.121.742.233 1.162.336.42.093.84.2 1.26.322.429.121.816.28 1.162.476.354.196.639.457.854.784.214.327.322.747.322 1.26 0 .495-.136.957-.406 1.386-.271.42-.691.76-1.26 1.022-.56.252-1.27.378-2.128.378zm9.577-.028a3.48 3.48 0 01-1.694-.42c-.504-.29-.91-.714-1.218-1.274-.299-.56-.448-1.26-.448-2.1 0-.84.145-1.54.434-2.1.299-.56.7-.98 1.204-1.26a3.536 3.536 0 011.722-.42c.728 0 1.372.159 1.932.476a3.5 3.5 0 011.33 1.33c.327.56.49 1.218.49 1.974s-.163 1.419-.49 1.988a3.5 3.5 0 01-1.33 1.33c-.56.317-1.204.476-1.932.476zm-3.934 2.632V71.58h1.288v2.002l-.084 1.722.14 1.722v4.69h-1.344zm3.822-3.808c.476 0 .9-.107 1.274-.322.383-.215.681-.518.896-.91.224-.401.336-.863.336-1.386 0-.532-.112-.99-.336-1.372a2.273 2.273 0 00-.896-.91 2.509 2.509 0 00-1.274-.322c-.467 0-.891.107-1.274.322a2.399 2.399 0 00-.896.91c-.215.383-.322.84-.322 1.372 0 .523.107.985.322 1.386.224.392.523.695.896.91.383.215.807.322 1.274.322zm9.025 1.176c-.793 0-1.493-.163-2.1-.49a3.593 3.593 0 01-1.4-1.344c-.327-.57-.49-1.223-.49-1.96 0-.737.159-1.39.476-1.96a3.5 3.5 0 011.33-1.33 3.784 3.784 0 011.918-.49c.719 0 1.353.159 1.904.476.55.317.98.765 1.288 1.344.317.57.476 1.237.476 2.002 0 .056-.005.121-.014.196 0 .075-.005.145-.014.21H79.14v-.966h5.614l-.546.336c.01-.476-.089-.9-.294-1.274a2.184 2.184 0 00-.854-.868c-.355-.215-.77-.322-1.246-.322-.467 0-.882.107-1.246.322a2.16 2.16 0 00-.854.882 2.628 2.628 0 00-.308 1.288v.224c0 .495.112.938.336 1.33.233.383.555.681.966.896.41.215.882.322 1.414.322a3.04 3.04 0 001.19-.224c.364-.15.681-.373.952-.672l.742.868a3.24 3.24 0 01-1.26.896 4.31 4.31 0 01-1.666.308zm8.572 0c-.793 0-1.493-.163-2.1-.49a3.593 3.593 0 01-1.4-1.344c-.326-.57-.49-1.223-.49-1.96 0-.737.159-1.39.476-1.96a3.5 3.5 0 011.33-1.33 3.784 3.784 0 011.918-.49c.719 0 1.354.159 1.904.476.55.317.98.765 1.288 1.344.318.57.476 1.237.476 2.002 0 .056-.004.121-.014.196 0 .075-.004.145-.014.21h-6.314v-.966h5.614l-.546.336c.01-.476-.088-.9-.294-1.274a2.183 2.183 0 00-.854-.868c-.354-.215-.77-.322-1.246-.322-.466 0-.882.107-1.246.322-.364.205-.648.5-.854.882a2.63 2.63 0 00-.308 1.288v.224c0 .495.112.938.336 1.33.234.383.556.681.966.896.41.215.882.322 1.414.322.439 0 .836-.075 1.19-.224.364-.15.682-.373.952-.672l.742.868a3.24 3.24 0 01-1.26.896 4.309 4.309 0 01-1.666.308zm8.335 0c-.72 0-1.363-.159-1.932-.476a3.5 3.5 0 01-1.33-1.33c-.327-.57-.49-1.232-.49-1.988s.163-1.414.49-1.974a3.5 3.5 0 011.33-1.33c.569-.317 1.213-.476 1.931-.476.626 0 1.19.14 1.694.42.504.28.906.7 1.204 1.26.308.56.462 1.26.462 2.1 0 .84-.149 1.54-.448 2.1-.289.56-.686.985-1.19 1.274-.504.28-1.078.42-1.721.42zm.112-1.176c.466 0 .886-.107 1.259-.322.383-.215.682-.518.896-.91.224-.401.336-.863.336-1.386 0-.532-.112-.99-.336-1.372a2.266 2.266 0 00-.896-.91 2.478 2.478 0 00-1.26-.322c-.475 0-.9.107-1.273.322a2.399 2.399 0 00-.897.91c-.224.383-.335.84-.335 1.372 0 .523.111.985.335 1.386.225.392.523.695.897.91.373.215.797.322 1.273.322zM101.632 79v-2.002l.084-1.722-.14-1.722v-4.942h1.344V79h-1.288z" fill="#2CDE5E"/><circle cx="62" cy="62" r="58" stroke="#2CDE5E" stroke-width="8"/></svg>