<svg xmlns="http://www.w3.org/2000/svg" width="124" height="124" fill="none"><path fill="#2cde5e" d="M39.82 60V46.8l.86.94h-4.02V46h5.14v14zm10.762.16q-1.64 0-2.94-.84-1.28-.84-2.04-2.44-.74-1.6-.74-3.88c0-2.28.247-2.813.74-3.88q.76-1.6 2.04-2.44 1.3-.84 2.94-.84 1.62 0 2.92.84t2.04 2.44.74 3.88c0 2.28-.246 2.813-.74 3.88q-.74 1.6-2.04 2.44t-2.92.84m0-1.78q1.101 0 1.92-.6.84-.6 1.3-1.8.48-1.2.48-2.98c0-1.78-.16-2.18-.48-2.98q-.46-1.2-1.3-1.8-.819-.6-1.92-.6t-1.94.6q-.84.6-1.32 1.8-.46 1.2-.46 2.98c0 1.78.154 2.18.46 2.98q.48 1.2 1.32 1.8t1.94.6m13.34 1.78q-1.64 0-2.94-.84-1.28-.84-2.04-2.44-.74-1.6-.74-3.88c0-2.28.247-2.813.74-3.88q.76-1.6 2.04-2.44 1.3-.84 2.94-.84 1.62 0 2.92.84t2.04 2.44.74 3.88c0 2.28-.246 2.813-.74 3.88q-.74 1.6-2.04 2.44c-1.3.84-1.84.84-2.92.84m0-1.78q1.101 0 1.92-.6.84-.6 1.3-1.8.48-1.2.48-2.98c0-1.78-.16-2.18-.48-2.98q-.46-1.2-1.3-1.8-.819-.6-1.92-.6t-1.94.6q-.84.6-1.32 1.8-.46 1.2-.46 2.98c0 1.78.154 2.18.46 2.98q.48 1.2 1.32 1.8t1.94.6m9.54 1.62 9.56-14h1.54l-9.56 14zm1.12-6.48q-.96 0-1.7-.48a3.26 3.26 0 0 1-1.16-1.34q-.4-.86-.4-2c0-1.14.133-1.427.4-2q.42-.86 1.16-1.34t1.7-.48q.98 0 1.7.48.74.48 1.14 1.34t.4 2c0 1.14-.133 1.427-.4 2a3.13 3.13 0 0 1-1.14 1.34q-.72.48-1.7.48m0-1.14q.92 0 1.44-.7.52-.72.52-1.98t-.52-1.96q-.52-.72-1.44-.72-.9 0-1.44.72-.52.7-.52 1.96 0 1.24.52 1.96.54.72 1.44.72m8.86 7.74q-.96 0-1.7-.48a3.13 3.13 0 0 1-1.14-1.34q-.4-.86-.4-2c0-1.14.133-1.427.4-2a3.13 3.13 0 0 1 1.14-1.34q.74-.48 1.7-.48.98 0 1.7.48.74.48 1.14 1.34.42.86.42 2c0 1.14-.14 1.427-.42 2a3.13 3.13 0 0 1-1.14 1.34q-.72.48-1.7.48m0-1.14q.9 0 1.42-.7.54-.72.54-1.98 0-1.24-.54-1.96-.52-.72-1.42-.72c-.9 0-1.08.24-1.44.72q-.52.7-.52 1.96t.52 1.98q.54.7 1.44.7M20.47 79v-9.8h3.822q1.288 0 2.198.406t1.4 1.176.49 1.834-.49 1.834q-.49.756-1.4 1.176-.91.405-2.198.406H21.24l.63-.658V79zm1.4-3.486-.63-.7h3.01q1.344 0 2.03-.574.7-.574.7-1.624t-.7-1.624q-.686-.574-2.03-.574h-3.01l.63-.7zM34.778 79v-1.568l-.07-.294v-2.674q0-.855-.504-1.316-.488-.476-1.484-.476a3.8 3.8 0 0 0-1.288.224 3.2 3.2 0 0 0-1.064.574l-.56-1.008q.574-.462 1.372-.7a5.7 5.7 0 0 1 1.694-.252q1.527 0 2.352.742.826.742.826 2.268V79zm-2.436.084q-.826 0-1.456-.28-.616-.28-.952-.77a2 2 0 0 1-.336-1.134q0-.601.28-1.092.295-.49.938-.784.66-.294 1.764-.294h2.352v.966h-2.296q-1.008 0-1.358.336t-.35.812q0 .546.434.882.435.322 1.204.322.756 0 1.316-.336.574-.335.826-.98l.266.924q-.266.659-.938 1.05-.672.378-1.694.378m9.446 2.716a6.8 6.8 0 0 1-1.988-.294q-.952-.28-1.554-.812l.644-1.036q.518.448 1.274.7a4.7 4.7 0 0 0 1.582.266q1.316 0 1.932-.616.615-.615.616-1.876v-1.568l.14-1.47-.07-1.484v-2.03h1.274v6.412q0 1.96-.98 2.884t-2.87.924m-.168-3.108q-1.078 0-1.932-.448a3.6 3.6 0 0 1-1.344-1.274q-.49-.812-.49-1.876 0-1.078.49-1.876a3.5 3.5 0 0 1 1.344-1.26q.854-.448 1.932-.448.951 0 1.736.392.784.378 1.246 1.176.476.798.476 2.016 0 1.204-.476 2.002a3.03 3.03 0 0 1-1.246 1.204 3.8 3.8 0 0 1-1.736.392m.154-1.176a2.74 2.74 0 0 0 1.316-.308 2.26 2.26 0 0 0 .896-.854q.336-.546.336-1.26c0-.714-.112-.896-.336-1.26a2.16 2.16 0 0 0-.896-.84 2.74 2.74 0 0 0-1.316-.308q-.742 0-1.33.308a2.26 2.26 0 0 0-.91.84 2.43 2.43 0 0 0-.322 1.26q0 .714.322 1.26.336.546.91.854.588.308 1.33.308m9.736 1.568q-1.191 0-2.1-.49a3.6 3.6 0 0 1-1.4-1.344q-.49-.855-.49-1.96t.476-1.96a3.5 3.5 0 0 1 1.33-1.33 3.8 3.8 0 0 1 1.918-.49q1.077 0 1.904.476.826.475 1.288 1.344.476.855.476 2.002 0 .084-.014.196 0 .112-.014.21H48.57v-.966h5.614l-.546.336q.014-.714-.294-1.274a2.2 2.2 0 0 0-.854-.868q-.532-.322-1.246-.322-.7 0-1.246.322-.546.308-.854.882a2.63 2.63 0 0 0-.308 1.288v.224q0 .742.336 1.33.35.574.966.896.615.322 1.414.322.657 0 1.19-.224.546-.224.952-.672l.742.868a3.24 3.24 0 0 1-1.26.896 4.3 4.3 0 0 1-1.666.308m12.08.028a6.8 6.8 0 0 1-2.142-.336q-1.023-.35-1.61-.896l.518-1.092q.56.49 1.428.812a5.2 5.2 0 0 0 1.806.322q.854 0 1.386-.196t.784-.532a1.3 1.3 0 0 0 .252-.784q0-.504-.336-.812a2.3 2.3 0 0 0-.854-.49 8.4 8.4 0 0 0-1.148-.336q-.63-.14-1.274-.322a6.2 6.2 0 0 1-1.162-.49 2.4 2.4 0 0 1-.84-.784q-.322-.504-.322-1.288 0-.756.392-1.386.405-.645 1.232-1.022.84-.392 2.128-.392.854 0 1.694.224.84.225 1.456.644l-.462 1.12a4.4 4.4 0 0 0-1.33-.602 5 5 0 0 0-1.358-.196q-.827 0-1.358.21t-.784.56a1.36 1.36 0 0 0-.238.784q0 .517.322.826.335.308.854.49.532.181 1.162.336.63.14 1.26.322.643.182 1.162.476.531.294.854.784t.322 1.26q0 .743-.406 1.386-.406.63-1.26 1.022-.84.378-2.128.378m9.577-.028a3.5 3.5 0 0 1-1.694-.42q-.756-.434-1.218-1.274-.448-.84-.448-2.1t.434-2.1q.448-.84 1.204-1.26a3.54 3.54 0 0 1 1.722-.42q1.092 0 1.932.476a3.5 3.5 0 0 1 1.33 1.33q.49.84.49 1.974c0 1.134-.163 1.419-.49 1.988a3.5 3.5 0 0 1-1.33 1.33q-.84.476-1.932.476m-3.934 2.632V71.58h1.288v2.002l-.084 1.722.14 1.722v4.69zm3.822-3.808q.714 0 1.274-.322.574-.322.896-.91.336-.601.336-1.386 0-.798-.336-1.372a2.27 2.27 0 0 0-.896-.91 2.5 2.5 0 0 0-1.274-.322q-.7 0-1.274.322a2.4 2.4 0 0 0-.896.91q-.322.574-.322 1.372 0 .785.322 1.386.336.588.896.91.574.322 1.274.322m9.025 1.176q-1.19 0-2.1-.49a3.6 3.6 0 0 1-1.4-1.344q-.49-.855-.49-1.96t.476-1.96a3.5 3.5 0 0 1 1.33-1.33 3.8 3.8 0 0 1 1.918-.49q1.078 0 1.904.476.825.475 1.288 1.344.476.855.476 2.002 0 .084-.014.196 0 .112-.014.21H79.14v-.966h5.614l-.546.336q.014-.714-.294-1.274a2.2 2.2 0 0 0-.854-.868q-.532-.322-1.246-.322-.7 0-1.246.322a2.16 2.16 0 0 0-.854.882 2.6 2.6 0 0 0-.308 1.288v.224q0 .742.336 1.33.35.574.966.896.615.322 1.414.322a3 3 0 0 0 1.19-.224q.546-.224.952-.672l.742.868a3.24 3.24 0 0 1-1.26.896 4.3 4.3 0 0 1-1.666.308m8.572 0q-1.19 0-2.1-.49a3.6 3.6 0 0 1-1.4-1.344q-.49-.855-.49-1.96t.476-1.96a3.5 3.5 0 0 1 1.33-1.33 3.8 3.8 0 0 1 1.918-.49q1.079 0 1.904.476.825.475 1.288 1.344.476.855.476 2.002 0 .084-.014.196 0 .112-.014.21h-6.314v-.966h5.614l-.546.336q.015-.714-.294-1.274a2.2 2.2 0 0 0-.854-.868q-.531-.322-1.246-.322-.7 0-1.246.322-.545.308-.854.882a2.63 2.63 0 0 0-.308 1.288v.224q0 .742.336 1.33.351.574.966.896t1.414.322q.659 0 1.19-.224.546-.224.952-.672l.742.868a3.24 3.24 0 0 1-1.26.896 4.3 4.3 0 0 1-1.666.308m8.335 0q-1.08 0-1.932-.476a3.5 3.5 0 0 1-1.33-1.33q-.49-.855-.49-1.988c0-1.133.163-1.414.49-1.974a3.5 3.5 0 0 1 1.33-1.33q.854-.476 1.931-.476.939 0 1.694.42.757.42 1.204 1.26.462.84.462 2.1t-.448 2.1q-.434.84-1.19 1.274-.756.42-1.721.42m.112-1.176q.7 0 1.259-.322.575-.322.896-.91.336-.601.336-1.386 0-.798-.336-1.372a2.27 2.27 0 0 0-.896-.91 2.5 2.5 0 0 0-1.26-.322q-.713 0-1.273.322a2.4 2.4 0 0 0-.897.91q-.335.574-.335 1.372 0 .785.335 1.386.337.588.897.91t1.273.322zM101.632 79v-2.002l.084-1.722-.14-1.722v-4.942h1.344V79z"/><circle cx="62" cy="62" r="58" stroke="#2cde5e" stroke-width="8"/></svg>